/* XPM */
static char *_bbd352d4b9742f5e13c3c51112ac1aeGWthoY9tH7fX6pdy[] = {
/* columns rows colors chars-per-pixel */
"32 32 6 1 ",
"  c #141B1B",
". c #543C52",
"X c #965340",
"o c #BD7959",
"O c #FFAD5D",
"+ c #F2AD7D",
/* pixels */
"                                ",
"  XXooXXXXXX..XXXXXXXXXX..oooo  ",
" o..XXXXXXXX..XXXXXXXXXX..XXooo ",
" o..XXXXXXXX..XXXXXXXXXX..XXooo ",
" oXX....................XXXXXXo ",
" oXX....................XXXXXXo ",
" XXXXX....................XXXXo ",
" XXXXX....................XXXXo ",
" XXX......XXXXXXXXXXXX....XXXXX ",
" XXX......XXXXXXXXXXXX....XXXXX ",
" XXX....XXXXXXXXXXXXXXXXXX  XXX ",
" XXX....XXXXXXXXXXXXXXXXXX  XXX ",
" XXX..XXXXXXXXXXXXXXooooXX  XXX ",
" XXX..XXXXXXXXXXXXXXooooXX  XXX ",
" XXX..XXXX    XXXX....oooo  XXX ",
" XXX..XXXX    XXXX....oooo  XXX ",
" XXX..XXXX    XXoo....oooo  XXX ",
" XXX..XXXX    XXoo....oooo  XXX ",
" XXX..XXXX  ..oooo....oooo  XXX ",
" XXX..XXXX  ..oooo....oooo  XXX ",
" XXX..XXXXXXoooooooooooooo  XXX ",
" XXX..XXXXXXoooooooooooooo  XXX ",
" XXX....XXoooooooooooooo  ..XXX ",
" XXX....XXoooooooooooooo  ..XXX ",
" X......oooo..oo..oo..oo  ....X ",
"XX......oooo..oo..oo..oo  ....XX",
"........oooo..oo..oo..oo........",
"........oooo..oo..oo..oo........",
"......++++++++++++++++++++......",
"......++++++++++++++++++++......",
"OOOOOOOOOOOOOOOOOOOOOOOOOOOOOOOO",
"OOOOOOOOOOOOOOOOOOOOOOOOOOOOOOOO"
};
