/* XPM */
static char *d702ebfe489f40c3ff95cf6966867957FDtwT8RW8cgA6rMl[] = {
/* columns rows colors chars-per-pixel */
"32 32 13 1 ",
"  c #141B1B",
". c #D14B34",
"X c #8F3E56",
"o c #56864C",
"O c #A8A129",
"+ c #D78B4A",
"@ c #EC884A",
"# c #F39551",
"$ c #F9A157",
"% c #FFAD5D",
"& c #C8966B",
"* c #F1C471",
"= c #FCE2CA",
/* pixels */
"%%%%%%%%%%%%%%%%%%%%%%%%%%%%%%%%",
"%%%%%%%%%%%%%%%%%%%%%%%%%%%%%%%%",
"%%%%%%%%%%%%%%%%%%%%%%%%%%%%%%%%",
"%%%%%%%%%%%%%%%%%%%%%%%%%%%%%%%%",
"%%%%%%%%%%%%%%%%%%%%%%%%%%%%%%%%",
"%%%%%%%%%%%%%%%%%%%%%%%%%%%%%%%%",
"%%%%%@$$%%%           %%%%$@@%%%",
"%%%%%@$$%%%           %%%%$@@%%%",
"%%%%%%%%   =====&& ==&  %%%%%%%%",
"%%%%%%%%   =====&& ==&  %%%%%%%%",
"%%%%%   &&   =====&  =&&  %%%%%%",
"%%%  =====   ======&&&&&  $$$%%%",
"%%%  =====   ======&&&&&  $$$%%%",
"%%%  =============&&&&  %%%##%%%",
"%%%  =    &&&&&&XX&&&&&&  %%%%%%",
"%%%  =    &&&&&&XX&&&&&&  %%%%%%",
"%%%  =  == XXXXXXX&&&&&&  %%%%%%",
"%%%  =  == XXXXXXX&&&&&&  %%%%%%",
"%%%   ****+XXXXXXXX&&&&&  %%%%%%",
"%%%  ...**+..XXXXXXXXXXXXX %%%%%",
"%%%  ...**+..XXXXXXXXXXXXX %%%%%",
"%%%%% ++++.   XXXX...XXXXXX  %%%",
"%%%%%%  OO OOOOOOOXXXXXXXXX  %%%",
"%%%%%%  OO OOOOOOOXXXXXXXXX  %%%",
"%%%%%%  OOO  ooooooooooooo %%%%%",
"%%%%%%  OOO  ooooooooooooo %%%%%",
"%%%%%%  ooooo   oooooooooo $$%%%",
"%%%%%%%%      %%  oooooooo %%%%%",
"%%%%%%%%      %%  oooooooo %%%%%",
"%%%%%%%%%%%##%%%%% ooooooo %%%%%",
"%%%%%%@@$$%$$$%%%%%        %%%%%",
"%%%%%%@@$$%$$$%%%%%        %%%%%"
};
