/* XPM */
static char *_2367ec0a04f47d8e607ae9bdca9b58639E0TKZsjc3J9ABZ[] = {
/* columns rows colors chars-per-pixel */
"32 32 6 1 ",
"  c #141B1B",
". c #D14B34",
"X c #965340",
"o c #EF914F",
"O c #FFAD5D",
"+ c white",
/* pixels */
"OOOOOOOOOOOOOOOOOOOOOOOOooooOOOO",
"OOOOOOOOOOOOOOOOOOOOOOOOooooOOOO",
"ooooOOOOOOOOOOooooooOOOOOOooooOO",
"ooooOOOOOOOOOOooooooOOOOOOooooOO",
"OOooooOOOOOOOOOOOOOOOOOOOOOOOOOO",
"OOooooOOOOOOOOOOOOOOOOOOOOOOOOOO",
"OOOOOOOOOOOOOOOOOOOOOOOOOOOOOOOO",
"OOOOOOOOOOOOOOOOOOOOOOOOOOOOOOOO",
"OOOOOOOOOOOO          OOOOOOOOOO",
"OOOOOOOOOOOO          OOOOOOOOOO",
"OOooooOOOO  oooooooooo  OOOOOOOO",
"OOooooOOOO  oooooooooo  OOOOOOOO",
"OOOOooOO  oooo++OOOOoooo  OOOOOO",
"OOOOooOO  oooo++OOOOoooo  OOOOOO",
"OOOOOOOO  ooXX++OOOOXXoo  OOOOOO",
"OOOOOOOO  ooXX++OOOOXXoo  OOOOOO",
"OOOOOOOO  oo..OOOO..XXoo  OOOOOO",
"OOOOOOOO  oo..OOOO..XXoo  OOOOOO",
"OOOOOOOO  oooo......oooo  OOOOOO",
"OOOOOOOO  oooo......oooo  OOOOOO",
"ooOOOOOOOO  oooooooooo  OOOOOOOO",
"ooOOOOOOOO  oooooooooo  OOOOOOOO",
"OOooOOOOOOOO          OOOOOOooOO",
"OOooOOOOOOOO          OOOOOOooOO",
"OOOOOOOOOOOOOOOOOOOOOOOOOOOOOOoo",
"OOOOOOOOOOOOOOOOOOOOOOOOOOOOOOoo",
"OOOOOOOOOOOOooooooooooOOOOOOOOOO",
"OOOOOOOOOOOOOooooooooOOOOOOOOOOO",
"ooOOOOOOOOOOOOOooooOOOOOOOOOOOOO",
"ooOOOOOOOOOOOOOOOOOOOOOOOOOOOOOO",
"OOooOOOOOOOOOOOOOOOOOOOOOOOOOOOO",
"OOooOOOOOOOOOOOOOOOOOOOOOOOOOOOO"
};
