/* XPM */
static char *_f5135a8162242c4f583f1c41efda2adtg54cRLkxEqzqOI1[] = {
/* columns rows colors chars-per-pixel */
"32 32 6 1 ",
"  c #141B1B",
". c #D14B34",
"X c #965340",
"o c #EF914F",
"O c #FFAD5D",
"+ c white",
/* pixels */
"OOOOOOOOOOOOOOOOOOOOOOOOooooOOOO",
"OOOOOOOOOOOOOOOOOOOOOOOOooooOOOO",
"ooooOOOOOOOOOOooooooOOOOOOooooOO",
"ooooOOOOOOOOOOooooooOOOOOOooooOO",
"OOooooOOOOOOOOOOooOOOOOOOOOOOOOO",
"OOooooOOOOOOOOOOooOOOOOOOOOOOOOO",
"OOOOOOOOOOOOOOOOOOOOOOOOOOOOOOOO",
"OOOOOOOOOOOOOOOOOOOOOOOOOOOOOOOO",
"OOOOOOOOOOOOOOOOOOOOOOooOOOOOOOO",
"OOOOOOOOOOOOOOOOOOOOOOooOOOOOOOO",
"OOooooOOOOOOOOOOOOOOOOOOooOOOOOO",
"OOooooOOOOOOOOOOOOOOOOOOooOOOOOO",
"OOOOooOOOOOOOOOOOOOOOOOOOOOOOOOO",
"OOOOooOOOOOOOOOOOOOOOOOOOOOOOOOO",
"OOOOOOOOOOOO          OOOOOOOOOO",
"OOOOOOOOOOOO          OOOOOOOOOO",
"OOOOOOOOOO  oooooooooo  OOOOOOOO",
"OOOOOOOOOO  oooooooooo  OOOOOOOO",
"OOOOOOOO  oooo++OOOOoooo  OOOOOO",
"OOOOOOOO  oooo++OOOOoooo  OOOOOO",
"ooOOOOOO  ooXX++OOOOXXoo  OOOOOO",
"ooOOOOOO  ooXX++OOOOXXoo  OOOOOO",
"OOooOOOO  oo..OOOO..XXoo  OOooOO",
"OOooOOOO  oo..OOOO..XXoo  OOooOO",
"OOOOOOOO  oooo......oooo  OOOOoo",
"OOOOOOOO  oooo......oooo  OOOOoo",
"OOOOOOOOOO  oooooooooo  OOOOOOOO",
"OOOOOOOOOO  oooooooooo  OOOOOOOO",
"ooOOOOOOOOOO          OOOOOOOOOO",
"ooOOOOOOOOOO          OOOOOOOOOO",
"OOooOOOOOOOOOOOOOOOOOOOOOOOOOOOO",
"OOooOOOOOOOOOOOOOOOOOOOOOOOOOOOO"
};
