/* XPM */
static char *_45069fc8e8d4b1df862ec8aa78425afRgAJKy104dDCrWow[] = {
/* columns rows colors chars-per-pixel */
"32 32 6 1 ",
"  c #141B1B",
". c #FFAD5D",
"X c #548789",
"o c #79B8CE",
"O c #9BA7AA",
"+ c white",
/* pixels */
"................................",
"................................",
"................................",
".............       ............",
"............ OOOoooo ...........",
"............ OOOoooo ...........",
"............ OOOoooo ...........",
"........... OOOO     ...........",
".......    ++++++++++    .......",
"....   O+++++oooo++++++OO  .....",
"....   O+++++oooo++++++OO  .....",
"....   O+++++oooo++++++OO  .....",
"... OOO++++XooooooooX++++OO  ...",
".  OOOOXooooXooooXXXoooXXOOOO  .",
".  OOOOXooooXooooXXXoooXXOOOO  .",
".  OXXXXXXXoXooooXXXoXXXXXXOO  .",
".  OXXXXXXXoXooooXXXoXXXXXXOO  .",
"... oooXXXXXXXXXXXXXXXXXXoo  ...",
"... oooXXXXXXXXXXXXXXXXXXoo  ...",
".  XXXXoXXXOOXXXXOOOOXXooXXXX  .",
".  XXXXoXXXOOXXXXOOOOXXooXXXX  .",
".  XXXXXOOO  OOOO    OOXXXXXX  .",
".  XXXXXOOO  OOOO    OOXXXXXX  .",
".  XXXXXOOO++OOOO++++OOXXXXXX  .",
".   XXXXXXX+OOOOOOOO+XXXXXX    .",
".   XXXXXXX+OOOOOOOO+XXXXXX    .",
".   XXXXXXX+OOOOOOOO+XXXXXX    .",
".  O   XXXXO++++++++OXXXX  OO  .",
".  OOOO XXXXXXXXXXXXXXX  OOOO  .",
".  OOOO XXXXXXXXXXXXXXX  OOOO  .",
".  OOOO XXXXXXXXXXXXXXX  OOOO  .",
"... OOOOOOO          OOOOOO  ..."
};
