/* XPM */
static char *_0c4f5100eca49dbbf326cb5d25c4d28xCDYXjjEtOTlY8bE[] = {
/* columns rows colors chars-per-pixel */
"32 32 2 1 ",
"  c #E67C44",
". c #FFAD5D",
/* pixels */
".. .......................... ..",
". ..........  ................ .",
".............  .................",
"................................",
".... ............... ...........",
"..... ............... ..........",
"................................",
"................................",
".......... ............... .....",
"......... ............... ......",
"................................",
"................................",
"................  ..............",
".................  .............",
"..  ............................",
"...  ...........................",
"..............................  ",
"............................... ",
"................................",
"................................",
"........... ........ ...........",
".......... .......... ..........",
"................................",
"................................",
"..... .................... .....",
"...... .................. ......",
" ................  ............ ",
"  ................  .......... .",
". ..............................",
".........  .....................",
"..........  ....................",
"................................"
};
