/* XPM */
static char *c61b77d7fec84c379cb439785cef3798uMqF98kYr1Djq7aV[] = {
/* columns rows colors chars-per-pixel */
"32 32 13 1 ",
"  c #141B1B",
". c #D14B34",
"X c #8F3E56",
"o c #56864C",
"O c #A8A129",
"+ c #D78B4A",
"@ c #EC884A",
"# c #F29451",
"$ c #F9A157",
"% c #FFAD5D",
"& c #C8966B",
"* c #F1C471",
"= c #FCE2CA",
/* pixels */
"%%%%%%%%%%%%%%%%%%%%%%%%%%%%%%%%",
"%%%%%%%%%%%%%%%%%%%%%%%%%%%%%%%%",
"%%%%%%%%%%%%%%%%%%%%%%%%%%%%%%%%",
"%%%%%%%%%%%%%%%%%%%%%%%%%%%%%%%%",
"%%%%%%%%%%%%%%%%%%%%%%%%%%%%%%%%",
"%%%%%%%%%%%%%%%%%%%%%%%%%%%%%%%%",
"%%%%%%%%%%           %%%%%$@@%%%",
"%%%%%%%%%%           %%%%%$@@%%%",
"%%%%%%%%  &== &&=====   %%%%%%%%",
"%%%%%%%%  &== &&=====   %%%%%%%%",
"%%%$$$  &&=  &=====   &&   %%%%%",
"%%%%%#  &&&&&======   =====  %%%",
"%%%%%#  &&&&&======   =====  %%%",
"%%%%%%%%  &&&&=============  %%%",
"%%%%%%  &&&&&&XX&&&&&&    =  %%%",
"%%%%%%  &&&&&&XX&&&&&&    =  %%%",
"%%%$$$  &&&&&&XXXXXXX ==  =  %%%",
"%%%$$$  &&&&&&XXXXXXX ==  =  %%%",
"%%%%%#  &&&&&XXXXXXXX+****   %%%",
"%%%%% XXXXXXXXXXXXX..+**...  %%%",
"%%%%% XXXXXXXXXXXXX..+**...  %%%",
"%%%  XXXXXX...XXXX   .++++ %%%%%",
"%%%  XXXXXXXXXOOOOOOO OO  %%%%%%",
"%%%  XXXXXXXXXOOOOOOO OO  %%%%%%",
"%%%%% ooooooooooooo  OOO  %%%%%%",
"%%%%% ooooooooooooo  OOO  %%%%%%",
"%%%%% oooooooooo   ooooo  $@@%%%",
"%%%$$ oooooooo  %%      %%%%%%%%",
"%%%$$ oooooooo  %%      %%%%%%%%",
"%%%%% ooooooo %%%%#%%%%%$$$%%%%%",
"%%%%%        %%%%%$$$%%%%%#%%%%%",
"%%%%%        %%%%%$$$%%%%%#%%%%%"
};
