/* XPM */
static char *_1c4b351d5964d42a1139d67790b568bzSne1rnPD3RJujwM[] = {
/* columns rows colors chars-per-pixel */
"32 32 11 1 ",
"  c #141B1B",
". c #D14B34",
"X c #8F3E56",
"o c #56864C",
"O c #A8A129",
"+ c #EC884A",
"@ c #F29451",
"# c #F9A157",
"$ c #FFAD5D",
"% c #C8966B",
"& c #FCE2CA",
/* pixels */
"$$$$$$$$$$$$$$$$$$$$$$$$$$$$$$$$",
"$$$$$$$$$$$$$$$$$$$$$$$$$$$$$$$$",
"$$$$$$$$$$$$$$$$$$$$$$$$$$$$$$$$",
"$$$$$$$$$$$$$$$$$$$$$$$$$$$$$$$$",
"$$$$$$$$$$$$$$$$$$$$$$$$$$$$$$$$",
"$$$$$$$$$$$$$$$$$$$$$$$$$$$$$$$$",
"$$$$$   $$$          $$$   $$$$$",
"$$$$$   $$$          $$$   $$$$$",
"$$$  &&&   &&%&&&&&&&   &&&  $$$",
"$$$  &&&   &&%&&&&&&&   &&&  $$$",
"$$$  &  &&&&&&%%&&&&&&&&  &  $$$",
"$$$  &&&&&&&&&&&&&&&&&&&&&&  $$$",
"$$$  &&&&&&&&&&&&&&&&&&&&&&  $$$",
"$$$  &%%&&&&&&&&&&&&&&&&%%&  $$$",
"$$$$$ %%%%%&&&&&&&&&&%%%%% $$$$$",
"$$$$$ %%%%%&&&&&&&&&&%%%%% $$$$$",
"$$$@@ XX%%%%%%%%%%%%%%%%XX $$$$$",
"$$$@@ XX%%%%%%%%%%%%%%%%XX $$$$$",
"$$$###  XX.%%%%%%%%%%.XX   $$$$$",
"$$$@@ XXXXX..........XXXooo  $$$",
"$$$@@ XXXXX..........XXXooo  $$$",
"$$$## XXXXXXXXXXXXXXXXXXooo  $$$",
"$$$   OOOOXXXXXXXXXXXXooooo  $$$",
"$$$   OOOOXXXXXXXXXXXXooooo  $$$",
"$$$  OoooooXXXXXXXXooooo   $$$$$",
"$$$  OoooooXXXXXXXXooooo   $$$$$",
"$$$  ooooo ooooo  oooo  $$$$$$$$",
"$$$  ooo        oooooo  $$+##$$$",
"$$$  ooo        oooooo  $$+##$$$",
"$$$$$   $$$$$$  ooooo $$$$$$$$$$",
"$$$$$$$$$$$$$$       $$$$$$$$$$$",
"$$$$$$$$$$$$$$       $$$$$$$$$$$"
};
