/* XPM */
static char *c45fc0ed92524409fbe7adb5f7c74d0dXOiHj14TV91uniUH[] = {
/* columns rows colors chars-per-pixel */
"32 32 6 1 ",
"  c #141B1B",
". c #D14B34",
"X c #965340",
"o c #EF914F",
"O c #FFAD5D",
"+ c white",
/* pixels */
"OOOOOOOOOOOOOOOOOOOOOOOOooooOOOO",
"OOOOOOOOOOOOOOOOOOOOOOOOooooOOOO",
"ooooOOOOOOOOOOooooooOOOOOOooooOO",
"ooooOOOOOOOOOOooooooOOOOOOooooOO",
"OOooooOOOOOOOOOOOOOOOOOOOOOOOOOO",
"OOooooOOOOOO          OOOOOOOOOO",
"OOOOOOOOOOOO          OOOOOOOOOO",
"OOOOOOOOOO  oooooooooo  OOOOOOOO",
"OOOOOOOOOO  oooooooooo  OOOOOOOO",
"OOOOOOOO  oooo++OOOOoooo  OOOOOO",
"OOooooOO  oooo++OOOOoooo  OOOOOO",
"OOooooOO  ooXX++OOOOXXoo  OOOOOO",
"OOOOooOO  ooXX++OOOOXXoo  OOOOOO",
"OOOOooOO  oo..OOOO..XXoo  OOOOOO",
"OOOOOOOO  oo..OOOO..XXoo  OOOOOO",
"OOOOOOOO  oooo......oooo  OOOOOO",
"OOOOOOOO  oooo......oooo  OOOOOO",
"OOOOOOOOOO  oooooooooo  OOOOOOOO",
"OOOOOOOOOO  oooooooooo  OOOOOOOO",
"OOOOOOOOOOOO          OOOOOOOOOO",
"ooOOOOOOOOOO          OOOOOOOOOO",
"ooOOOOOOOOOOOOOOOOOOOOOOOOOOOOOO",
"OOooOOOOOOOOOOOOOOOOOOOOOOOOooOO",
"OOooOOOOOOOOOOOOOOOOOOOOOOOOooOO",
"OOOOOOOOOOOOOOOOOOOOOOOOOOOOOOoo",
"OOOOOOOOOOOOOOOOOOOOOOOOOOOOOOoo",
"OOOOOOOOOOooooooooooooooOOOOOOOO",
"OOOOOOOOOOOooooooooooooOOOOOOOOO",
"ooOOOOOOOOOOooooooooooOOOOOOOOOO",
"ooOOOOOOOOOOOOOOOOOOOOOOOOOOOOOO",
"OOooOOOOOOOOOOOOOOOOOOOOOOOOOOOO",
"OOooOOOOOOOOOOOOOOOOOOOOOOOOOOOO"
};
