/* XPM */
static char *_62ecbfdcb054fe982bfd1f7aa0481229LEFC8JXfuSHXwcg[] = {
/* columns rows colors chars-per-pixel */
"32 32 13 1 ",
"  c #141B1B",
". c #D14B34",
"X c #8F3E56",
"o c #56864C",
"O c #A8A129",
"+ c #D78B4A",
"@ c #EC884A",
"# c #F39551",
"$ c #F9A157",
"% c #FFAD5D",
"& c #C8966B",
"* c #F1C471",
"= c #FCE2CA",
/* pixels */
"%%%%%%%%%%%%%%%%%%%%%%%%%%%%%%%%",
"%%%%%%%%%%%%%%%%%%%%%%%%%%%%%%%%",
"%%%%%%%%%%%%%%%%%%%%%%%%%%%%%%%%",
"%%%%%%%%%%%%%%%%%%%%%%%%%%%%%%%%",
"%%%%%%%%%%%%%%%%%%%%%%%%%%%%%%%%",
"%%%%%%%%%%%%%%%%%%%%%%%%%%%%%%%%",
"%%%%%   %%            %%   %%%%%",
"%%%%%   %%            %%   %%%%%",
"%%%  &&&   =====&&&==   &&&  %%%",
"%%%  &&&   =====&&&==   &&&  %%%",
"%%%  &  ==   ======   ==  &  %%%",
"%%%  &&&==   ======   ==&&&  %%%",
"%%%  &&&==   ======   ==&&&  %%%",
"%%%%% &&&&=&&&====&&&===&& %%%%%",
"%%%%% &&   == XXXX ==   && %%%%%",
"%%%%% &&   == XXXX ==   && %%%%%",
"%%%%% XXXX+**++++++**+XXXX %%%%%",
"%%%%% XXXX+**++++++**+XXXX %%%%%",
"%%%%% XXXXX**......**XXXXX %%%%%",
"%%%%%     XXX******XXX     %%%%%",
"%%%%%     XXX******XXX     %%%%%",
"%%%  oooooOXX++++++XXOoooo %%%%%",
"%%%  ooooooooXXXXXXOOo    %%%%%%",
"%%%  ooooooooXXXXXXOOo    %%%%%%",
"%%%$$     oOOOOOOOOooooooo %%%%%",
"%%%$$     oOOOOOOOOooooooo %%%%%",
"%%%%%#%%  ooooooooo  ooooo %%%%%",
"%%%%%%@@  oooooooo        %%%%%%",
"%%%%%%@@  oooooooo        %%%%%%",
"%%%$$$%%%% ooo    %$$$%%%%#%%%%%",
"%%%%%#%%%%%   %%%%%%%#%%%%$$$%%%",
"%%%%%#%%%%%   %%%%%%%#%%%%$$$%%%"
};
