/* XPM */
static char *_9a57554debb4edab1aebf64a35bd94ffHBfgWSrwEyZ8RVX[] = {
/* columns rows colors chars-per-pixel */
"32 32 6 1 ",
"  c #141B1B",
". c #543C52",
"X c #965340",
"o c #BD7959",
"O c #FFAD5D",
"+ c #F2AD7D",
/* pixels */
"                                ",
"  XXooXXXXXX..XXXXXXXXXX..oooo  ",
" o..XXXXXXXX..XXXXXXXXXX..XXooo ",
" o..XXXXXXXX..XXXXXXXXXX..XXooo ",
" oXX....              ..XXXXXXo ",
" oXX....              ..XXXXXXo ",
" XXXXX                    XXXXo ",
" XXXXX                    XXXXo ",
" XXXXX                    XXXXX ",
" XXXXX                    XXXXX ",
" XXX                        XXX ",
" XXX                        XXX ",
" XXX                        XXX ",
" XXX                        XXX ",
" XXX                        XXX ",
" XXX                        XXX ",
" XXX                        XXX ",
" XXX                        XXX ",
" XXX                        XXX ",
" XXX                        XXX ",
" XXX..      oooooooo      ..XXX ",
" XXX..      oooooooo      ..XXX ",
" XXX..    oooooooooooo    ..XXX ",
" XXX..    oooooooooooo    ..XXX ",
" X....  oo++++++++++++oo  ....X ",
"XX....  oo++++++++++++oo  ....XX",
"........++++++++++++++++........",
"........++++++++++++++++........",
"......++++OOOOOOOOOOOO++++......",
"......++++OOOOOOOOOOOO++++......",
"OOOOOOOOOOOOOOOOOOOOOOOOOOOOOOOO",
"OOOOOOOOOOOOOOOOOOOOOOOOOOOOOOOO"
};
